<svg width="804" height="701" viewBox="0 0 804 701" fill="none" xmlns="http://www.w3.org/2000/svg">
<mask id="mask0_2420_1313" style="mask-type:luminance" maskUnits="userSpaceOnUse" x="0" y="0" width="982" height="701">
<path d="M914.409 -3.99701e-05L67 -2.92866e-06C29.997 -1.31121e-06 3.19529e-05 29.9969 3.35703e-05 67L5.83547e-05 634C5.99721e-05 671.003 29.997 701 67.0001 701L914.409 701C951.412 701 981.409 671.003 981.409 634L981.409 67C981.409 29.9969 951.412 -4.15875e-05 914.409 -3.99701e-05Z" fill="white"/>
</mask>
<g mask="url(#mask0_2420_1313)">
<path d="M914.409 -3.99701e-05L67 -2.92866e-06C29.997 -1.31121e-06 3.19529e-05 29.9969 3.35703e-05 67L5.83547e-05 634C5.99721e-05 671.003 29.997 701 67.0001 701L914.409 701C951.412 701 981.409 671.003 981.409 634L981.409 67C981.409 29.9969 951.412 -4.15875e-05 914.409 -3.99701e-05Z" fill="#E2E2E2"/>
<path d="M626.739 -128.411C643.24 -115.163 652.513 -94.898 651.751 -73.7503L649.083 0.248212C647.097 55.3285 583.161 84.5851 540.182 50.0804L-803.02 -1028.28C-818.469 -1040.68 -827.637 -1059.28 -828.06 -1079.09L-829.716 -1156.55C-830.932 -1213.44 -765.159 -1245.85 -720.787 -1210.23L626.739 -128.411Z" fill="#FFEA09"/>
<path d="M1220.03 981.496C1236.53 994.744 1245.8 1015.01 1245.04 1036.16L1242.37 1110.16C1240.39 1165.24 1176.45 1194.49 1133.47 1159.99L-308.314 2.49427C-337.168 -20.6704 -341.781 -62.8397 -318.617 -91.6947L-281.448 -137.997C-258.283 -166.853 -216.111 -171.466 -187.256 -148.3L1220.03 981.496Z" fill="#FFEA09"/>
<path d="M2181.67 1103.8C2198.17 1117.05 2207.44 1137.31 2206.68 1158.46L2204.01 1232.46C2202.03 1287.54 2138.09 1316.79 2095.11 1282.29L751.902 203.934C736.453 191.531 727.285 172.926 726.862 153.119L725.206 75.6488C723.99 18.7597 789.763 -13.652 834.135 21.9707L2181.67 1103.8Z" fill="#FFEA09"/>
<path d="M1801.63 1125.94C1818.13 1139.19 1827.4 1159.45 1826.64 1180.6L1823.98 1254.59C1821.99 1309.67 1758.06 1338.93 1715.08 1304.43L371.871 226.074C356.422 213.671 347.254 195.067 346.831 175.26L345.175 97.7987C343.959 40.9096 409.732 8.49783 454.104 44.1205L1801.63 1125.94Z" fill="#FFEA09"/>
<path d="M242.552 -111.981C259.053 -98.7342 268.326 -78.4705 267.564 -57.3238L264.9 16.6705C262.916 71.7519 198.979 101.011 155.999 66.5053L-1187.21 -1011.85C-1202.66 -1024.25 -1211.82 -1042.85 -1212.25 -1062.66L-1213.9 -1140.13C-1215.12 -1197.02 -1149.35 -1229.43 -1104.97 -1193.81L242.552 -111.981Z" fill="#FFEA09"/>
<path d="M189.982 513.406C206.483 526.653 215.756 546.917 214.994 568.064L212.329 642.049C210.346 697.131 146.409 726.389 103.429 691.884L-1239.78 -386.459C-1255.23 -398.862 -1264.39 -417.467 -1264.82 -437.274L-1266.47 -514.744C-1267.69 -571.633 -1201.92 -604.045 -1157.54 -568.422L189.982 513.406Z" fill="#FFEA09"/>
<path d="M1754.05 1739.09C1770.56 1752.34 1779.83 1772.6 1779.07 1793.75L1776.4 1867.75C1774.41 1922.83 1710.48 1952.08 1667.5 1917.58L324.297 839.224C308.847 826.821 299.68 808.217 299.256 788.41L297.601 710.949C296.385 654.06 362.158 621.648 406.53 657.271L1754.05 1739.09Z" fill="#FFEA09"/>
</g>
</svg>
