<?xml version="1.0" encoding="UTF-8"?>
<svg id="Layer_2" data-name="Layer 2" xmlns="http://www.w3.org/2000/svg" viewBox="0 0 57.54 52.28">
  <defs>
    <style>
      .cls-1 {
        fill: #ffea00;
      }
    </style>
  </defs>
  <g id="Camada_1" data-name="Camada 1">
    <g>
      <path class="cls-1" d="M37.02,35.06c2.19-1.94,3.59-4.57,3.95-7.5.39-3.18-.48-6.31-2.46-8.83-1.97-2.52-4.81-4.12-7.98-4.51-3.17-.38-6.31.48-8.83,2.46-2.52,1.97-4.12,4.81-4.51,7.98-.39,3.18.48,6.31,2.46,8.83s4.81,4.12,7.98,4.51c.49.06.99.09,1.48.09,2.52,0,4.95-.8,7.01-2.3l.91-.74ZM34.5,33.05c-1.85,1.45-4.16,2.09-6.49,1.8-2.33-.28-4.42-1.46-5.87-3.31-1.45-1.85-2.09-4.16-1.8-6.49.29-2.34,1.46-4.42,3.32-5.87,1.56-1.22,3.45-1.87,5.41-1.87.36,0,.72.02,1.09.07,4.82.59,8.26,4.99,7.67,9.81-.29,2.34-1.46,4.42-3.32,5.87Z"/>
      <path class="cls-1" d="M38.21,13.89l1.86.44c1.51.38,3.11-.05,4.28-1.15l6.69-6.49-1.56-.41-2.14-.58c-.23-.06-.47.01-.65.18l-8.48,8h0Z"/>
      <path class="cls-1" d="M43.28,23.74l1.05,1.6c.84,1.31,2.3,2.1,3.9,2.1l9.32-.14-.85-1.36-1.16-1.89c-.13-.2-.35-.32-.59-.31h-11.66s0,0,0,0Z"/>
      <path class="cls-1" d="M40.15,34.33l-.34,1.88c-.3,1.53.22,3.11,1.39,4.21l6.86,6.31.32-1.58.46-2.17c.04-.23-.04-.47-.22-.64l-8.46-8.02h0Z"/>
      <path class="cls-1" d="M19.33,13.82l-1.86.44c-1.51.38-3.11-.05-4.28-1.15l-6.69-6.49,1.56-.41,2.14-.58c.23-.06.47.01.65.18l8.48,8h0Z"/>
      <path class="cls-1" d="M14.27,23.67l-1.05,1.6c-.84,1.31-2.3,2.1-3.9,2.1l-9.32-.14.85-1.36,1.16-1.89c.13-.2.35-.32.59-.31h11.66s0,0,0,0Z"/>
      <path class="cls-1" d="M17.4,34.26l.34,1.88c.3,1.53-.22,3.11-1.39,4.21l-6.86,6.31-.32-1.58-.46-2.17c-.04-.23.04-.47.22-.64l8.46-8.02h0Z"/>
      <rect class="cls-1" x="27.28" y="42.63" width="3.21" height="9.64" transform="translate(57.76 94.91) rotate(-180)"/>
      <rect class="cls-1" x="27.28" width="3.21" height="9.64" transform="translate(57.76 9.64) rotate(-180)"/>
    </g>
  </g>
</svg>